<svg width="29" height="28" viewBox="0 0 29 28" fill="none" xmlns="http://www.w3.org/2000/svg">
<path d="M25.364 9.26049C25.2018 9.09714 25.0088 8.96758 24.7962 8.87934C24.5836 8.7911 24.3556 8.74593 24.1254 8.74643H20.6254V7.87143C20.6254 6.24698 19.9801 4.68906 18.8314 3.5404C17.6827 2.39174 16.1248 1.74643 14.5004 1.74643C12.8759 1.74643 11.318 2.39174 10.1693 3.5404C9.02068 4.68906 8.37537 6.24698 8.37537 7.87143V8.74643H4.87537C4.41124 8.74643 3.96612 8.93081 3.63793 9.259C3.30974 9.58718 3.12537 10.0323 3.12537 10.4964V22.3089C3.12537 24.4417 4.93005 26.2464 7.06287 26.2464H21.9379C22.9695 26.2468 23.9604 25.8434 24.6985 25.1226C25.0699 24.7682 25.3657 24.3423 25.568 23.8704C25.7703 23.3986 25.8748 22.8907 25.8754 22.3773V10.4964C25.8761 10.2668 25.8313 10.0394 25.7435 9.82725C25.6557 9.6151 25.5267 9.42247 25.364 9.26049ZM10.1254 7.87143C10.1254 6.71111 10.5863 5.59831 11.4068 4.77784C12.2272 3.95737 13.34 3.49643 14.5004 3.49643C15.6607 3.49643 16.7735 3.95737 17.594 4.77784C18.4144 5.59831 18.8754 6.71111 18.8754 7.87143V8.74643H10.1254V7.87143ZM20.6254 13.1214C20.6254 14.7459 19.9801 16.3038 18.8314 17.4525C17.6827 18.6011 16.1248 19.2464 14.5004 19.2464C12.8759 19.2464 11.318 18.6011 10.1693 17.4525C9.02068 16.3038 8.37537 14.7459 8.37537 13.1214V12.2464C8.37537 12.0144 8.46755 11.7918 8.63165 11.6277C8.79574 11.4636 9.0183 11.3714 9.25037 11.3714C9.48243 11.3714 9.70499 11.4636 9.86908 11.6277C10.0332 11.7918 10.1254 12.0144 10.1254 12.2464V13.1214C10.1254 14.2818 10.5863 15.3946 11.4068 16.215C12.2272 17.0355 13.34 17.4964 14.5004 17.4964C15.6607 17.4964 16.7735 17.0355 17.594 16.215C18.4144 15.3946 18.8754 14.2818 18.8754 13.1214V12.2464C18.8754 12.0144 18.9676 11.7918 19.1316 11.6277C19.2957 11.4636 19.5183 11.3714 19.7504 11.3714C19.9824 11.3714 20.205 11.4636 20.3691 11.6277C20.5332 11.7918 20.6254 12.0144 20.6254 12.2464V13.1214Z" fill="#673AB7"/>
</svg>
