<svg width="45" height="45" viewBox="0 0 45 45" fill="none" xmlns="http://www.w3.org/2000/svg">
<circle cx="22.5" cy="22.5" r="22.5" fill="#683DB9" fill-opacity="0.31"/>
<path d="M10.3335 27.6667L9.62639 28.3738L8.91928 27.6667L9.62639 26.9596L10.3335 27.6667ZM27.8335 26.6667C28.3858 26.6667 28.8335 27.1144 28.8335 27.6667C28.8335 28.2189 28.3858 28.6667 27.8335 28.6667L27.8335 26.6667ZM15.4597 34.2071L9.62639 28.3738L11.0406 26.9596L16.8739 32.7929L15.4597 34.2071ZM9.62639 26.9596L15.4597 21.1262L16.8739 22.5404L11.0406 28.3738L9.62639 26.9596ZM10.3335 26.6667L27.8335 26.6667L27.8335 28.6667L10.3335 28.6667L10.3335 26.6667Z" fill="#673AB7"/>
<path d="M33.6665 18.3334L34.3736 19.0405L35.0807 18.3334L34.3736 17.6262L33.6665 18.3334ZM16.1665 17.3334C15.6142 17.3334 15.1665 17.7811 15.1665 18.3334C15.1665 18.8856 15.6142 19.3334 16.1665 19.3334L16.1665 17.3334ZM28.5403 24.8738L34.3736 19.0405L32.9594 17.6262L27.1261 23.4596L28.5403 24.8738ZM34.3736 17.6262L28.5403 11.7929L27.1261 13.2071L32.9594 19.0405L34.3736 17.6262ZM33.6665 17.3334L16.1665 17.3334L16.1665 19.3334L33.6665 19.3334L33.6665 17.3334Z" fill="#673AB7"/>
</svg>
