<svg width="45" height="45" viewBox="0 0 45 45" fill="none" xmlns="http://www.w3.org/2000/svg">
<circle cx="22.5" cy="22.5" r="22.5" fill="#2CC858" fill-opacity="0.24"/>
<g clip-path="url(#clip0_1895_15142)">
<path d="M15 37.0001C15 37.0001 13.25 37.0001 13.25 35.2501C13.25 33.5001 15 28.2501 22 28.2501C29 28.2501 30.75 33.5001 30.75 35.2501C30.75 37.0001 29 37.0001 29 37.0001H15ZM22 26.5876C23.1603 26.5876 24.2731 26.1267 25.0936 25.3062C25.9141 24.4858 26.375 23.373 26.375 22.2126C26.375 21.0523 25.9141 19.9395 25.0936 19.1191C24.2731 18.2986 23.1603 17.8376 22 17.8376C20.8397 17.8376 19.7269 18.2986 18.9064 19.1191C18.0859 19.9395 17.625 21.0523 17.625 22.2126C17.625 23.373 18.0859 24.4858 18.9064 25.3062C19.7269 26.1267 20.8397 26.5876 22 26.5876Z" fill="#2CC858"/>
<path d="M11.5 10.75C10.5717 10.75 9.6815 11.1187 9.02513 11.7751C8.36875 12.4315 8 13.3217 8 14.25V30.875C8 31.5712 8.27656 32.2389 8.76884 32.7312C9.26113 33.2234 9.92881 33.5 10.625 33.5H11.7678C12.1337 32.214 12.7696 31.0208 13.6333 30H9.75V14.25C9.75 13.7859 9.93437 13.3408 10.2626 13.0126C10.5908 12.6844 11.0359 12.5 11.5 12.5H32.5C32.9641 12.5 33.4092 12.6844 33.7374 13.0126C34.0656 13.3408 34.25 13.7859 34.25 14.25V30H30.3668C31.3363 31.1445 31.9242 32.4028 32.2323 33.5H33.375C34.0712 33.5 34.7389 33.2234 35.2312 32.7312C35.7234 32.2389 36 31.5712 36 30.875V14.25C36 13.3217 35.6313 12.4315 34.9749 11.7751C34.3185 11.1187 33.4283 10.75 32.5 10.75H11.5Z" fill="#2CC858"/>
</g>
<defs>
<clipPath id="clip0_1895_15142">
<rect width="28" height="28" fill="white" transform="translate(8 9)"/>
</clipPath>
</defs>
</svg>
