<svg width="45" height="45" viewBox="0 0 45 45" fill="none" xmlns="http://www.w3.org/2000/svg">
<circle cx="22.5" cy="22.5" r="22.5" fill="#673AB7" fill-opacity="0.27"/>
<path d="M22 13.8335C20.917 13.8335 19.8784 14.2637 19.1126 15.0295C18.3469 15.7953 17.9167 16.8339 17.9167 17.9168C17.9167 18.9998 18.3469 20.0384 19.1126 20.8042C19.8784 21.57 20.917 22.0002 22 22.0002C23.083 22.0002 24.1216 21.57 24.8874 20.8042C25.6531 20.0384 26.0833 18.9998 26.0833 17.9168C26.0833 16.8339 25.6531 15.7953 24.8874 15.0295C24.1216 14.2637 23.083 13.8335 22 13.8335ZM22 16.1668C22.4641 16.1668 22.9092 16.3512 23.2374 16.6794C23.5656 17.0076 23.75 17.4527 23.75 17.9168C23.75 18.381 23.5656 18.8261 23.2374 19.1543C22.9092 19.4825 22.4641 19.6668 22 19.6668C21.5359 19.6668 21.0908 19.4825 20.7626 19.1543C20.4344 18.8261 20.25 18.381 20.25 17.9168C20.25 17.4527 20.4344 17.0076 20.7626 16.6794C21.0908 16.3512 21.5359 16.1668 22 16.1668ZM14.4167 17.3335C13.6431 17.3335 12.9013 17.6408 12.3543 18.1878C11.8073 18.7347 11.5 19.4766 11.5 20.2502C11.5 21.3468 12.1183 22.2918 13.005 22.7935C13.425 23.0268 13.9033 23.1668 14.4167 23.1668C14.93 23.1668 15.4083 23.0268 15.8283 22.7935C16.26 22.5485 16.6217 22.1985 16.89 21.7785C16.0383 20.6702 15.5833 19.3168 15.5833 17.9168C15.5833 17.8118 15.5833 17.6952 15.5833 17.5902C15.2333 17.4268 14.8367 17.3335 14.4167 17.3335ZM29.5833 17.3335C29.1633 17.3335 28.7667 17.4268 28.4167 17.5902C28.4167 17.6952 28.4167 17.8118 28.4167 17.9168C28.4167 19.3168 27.9617 20.6702 27.11 21.7785C27.25 22.0002 27.4017 22.1752 27.5767 22.3502C27.7633 22.5252 27.95 22.6768 28.1717 22.7935C28.5917 23.0268 29.07 23.1668 29.5833 23.1668C30.0967 23.1668 30.575 23.0268 30.995 22.7935C31.8817 22.2918 32.5 21.3468 32.5 20.2502C32.5 19.4766 32.1927 18.7347 31.6457 18.1878C31.0987 17.6408 30.3569 17.3335 29.5833 17.3335ZM22 24.3335C19.27 24.3335 13.8333 25.6985 13.8333 28.4168V30.1668H30.1667V28.4168C30.1667 25.6985 24.73 24.3335 22 24.3335ZM13.495 24.9752C11.2433 25.2435 8 26.3868 8 28.4168V30.1668H11.5V27.9152C11.5 26.7368 12.305 25.7568 13.495 24.9752ZM30.505 24.9752C31.695 25.7568 32.5 26.7368 32.5 27.9152V30.1668H36V28.4168C36 26.3868 32.7567 25.2435 30.505 24.9752ZM22 26.6668C23.785 26.6668 25.78 27.2502 26.935 27.8335H17.065C18.22 27.2502 20.215 26.6668 22 26.6668Z" fill="#673AB7"/>
</svg>
