<?xml version="1.0" ?><!-- Uploaded to: SVG Repo, www.svgrepo.com, Generator: SVG Repo Mixer Tools -->
<svg width="800px" height="800px" viewBox="0 0 64 64" data-name="Layer 1" id="Layer_1" xmlns="http://www.w3.org/2000/svg"><defs><style>.cls-1{fill:#0074ff;}.cls-2{fill:#ffb300;}</style></defs><title/><path class="cls-1" d="M56.5,59.06H7.5a2,2,0,0,1-2-2V46.78a2,2,0,0,1,2-2H25.61a2,2,0,0,1,0,4H9.5v6.28h45V48.78H36.86a2,2,0,0,1,0-4H56.5a2,2,0,0,1,2,2V57.06A2,2,0,0,1,56.5,59.06Z"/><path class="cls-2" d="M43,35.48a2,2,0,0,1-1.41-.59l-22-22a2,2,0,0,1,2.83-2.83l22,22a2,2,0,0,1,0,2.82A2,2,0,0,1,43,35.48Z"/><path class="cls-2" d="M21,35.48a2,2,0,0,1-1.42-.59,2,2,0,0,1,0-2.82l22-22a2,2,0,0,1,2.83,2.83l-22,22A2,2,0,0,1,21,35.48Z"/></svg>