<svg width="29" height="28" viewBox="0 0 29 28" fill="none" xmlns="http://www.w3.org/2000/svg">
<path d="M4.87207 9.62122C4.64001 9.62122 4.41745 9.7134 4.25335 9.8775C4.08926 10.0416 3.99707 10.2642 3.99707 10.4962V22.3087C3.99707 23.9625 5.40582 25.3712 7.05957 25.3712H21.9346C23.5883 25.3712 24.9971 24.0308 24.9971 22.3771V10.4962C24.9971 10.2642 24.9049 10.0416 24.7408 9.8775C24.5767 9.7134 24.3541 9.62122 24.1221 9.62122H4.87207Z" stroke="#524E4E" stroke-width="1.49989" stroke-linecap="round" stroke-linejoin="round"/>
<path d="M9.24707 9.62183V7.87183C9.24707 6.47944 9.80019 5.14408 10.7848 4.15952C11.7693 3.17495 13.1047 2.62183 14.4971 2.62183V2.62183C15.8895 2.62183 17.2248 3.17495 18.2094 4.15952C19.1939 5.14408 19.7471 6.47944 19.7471 7.87183V9.62183" stroke="#524E4E" stroke-width="1.49989" stroke-linecap="round" stroke-linejoin="round"/>
<path d="M9.24707 12.2463V13.1213C9.24707 14.5137 9.80019 15.8491 10.7848 16.8337C11.7693 17.8182 13.1047 18.3713 14.4971 18.3713C15.8895 18.3713 17.2248 17.8182 18.2094 16.8337C19.1939 15.8491 19.7471 14.5137 19.7471 13.1213V12.2463" stroke="#524E4E" stroke-width="1.49989" stroke-linecap="round" stroke-linejoin="round"/>
</svg>
