<svg width="26" height="26" viewBox="0 0 26 26" fill="none" xmlns="http://www.w3.org/2000/svg">
<circle cx="13" cy="13" r="13" fill="#E93B3B" fill-opacity="0.28"/>
<path d="M5.64062 11.2533L6.58729 10.3067L8.00063 11.7267L9.41396 10.3067L10.3606 11.2533L8.94062 12.6667L10.3606 14.08L9.41396 15.0267L8.00063 13.6067L6.58729 15.0267L5.64062 14.08L7.06062 12.6667L5.64062 11.2533ZM14.6673 8C15.3745 8 16.0528 8.28095 16.5529 8.78105C17.053 9.28115 17.334 9.95942 17.334 10.6667C17.334 11.3739 17.053 12.0522 16.5529 12.5523C16.0528 13.0524 15.3745 13.3333 14.6673 13.3333C13.96 13.3333 13.2818 13.0524 12.7817 12.5523C12.2816 12.0522 12.0006 11.3739 12.0006 10.6667C12.0006 9.95942 12.2816 9.28115 12.7817 8.78105C13.2818 8.28095 13.96 8 14.6673 8V8ZM14.6673 9.26667C14.296 9.26667 13.9399 9.41417 13.6773 9.67672C13.4148 9.93927 13.2673 10.2954 13.2673 10.6667C13.2673 11.038 13.4148 11.3941 13.6773 11.6566C13.9399 11.9192 14.296 12.0667 14.6673 12.0667C15.4406 12.0667 16.0673 11.44 16.0673 10.6667C16.0673 9.89333 15.4406 9.26667 14.6673 9.26667ZM14.6673 14C16.4473 14 20.0006 14.8867 20.0006 16.6667V18.6667H9.33396V16.6667C9.33396 14.8867 12.8873 14 14.6673 14ZM14.6673 15.2667C12.6673 15.2667 10.6006 16.24 10.6006 16.6667V17.4H18.734V16.6667C18.734 16.24 16.6473 15.2667 14.6673 15.2667Z" fill="#E93B3B"/>
</svg>
