<svg width="32" height="33" viewBox="0 0 32 33" fill="none" xmlns="http://www.w3.org/2000/svg">
<path d="M21.3682 28.6487H24.2432C25.1714 28.6487 26.0617 28.2799 26.718 27.6236C27.3744 26.9672 27.7432 26.0769 27.7432 25.1487V22.2737" stroke="black" stroke-width="2.06234" stroke-linecap="round" stroke-linejoin="round"/>
<path d="M27.7432 11.5237V8.64868C27.7432 7.72043 27.3744 6.83019 26.718 6.17381C26.0617 5.51743 25.1714 5.14868 24.2432 5.14868H21.3682" stroke="black" stroke-width="2.06234" stroke-linecap="round" stroke-linejoin="round"/>
<path d="M10.6182 28.6487H7.74316C6.81491 28.6487 5.92467 28.2799 5.26829 27.6236C4.61191 26.9672 4.24316 26.0769 4.24316 25.1487V22.2737" stroke="black" stroke-width="2.06234" stroke-linecap="round" stroke-linejoin="round"/>
<path d="M4.24316 11.5237V8.64868C4.24316 7.72043 4.61191 6.83019 5.26829 6.17381C5.92467 5.51743 6.81491 5.14868 7.74316 5.14868H10.6182" stroke="black" stroke-width="2.06234" stroke-linecap="round" stroke-linejoin="round"/>
</svg>
