<svg width="35" height="35" viewBox="0 0 35 35" fill="none" xmlns="http://www.w3.org/2000/svg">
<circle cx="17.5" cy="17.5" r="17.5" fill="#E98862" fill-opacity="0.2"/>
<path d="M13.6113 16.7222C11.6783 16.7222 10.1113 15.1552 10.1113 13.2222C10.1113 11.2892 11.6783 9.72217 13.6113 9.72217C15.5443 9.72217 17.1113 11.2892 17.1113 13.2222C17.1113 15.1552 15.5443 16.7222 13.6113 16.7222ZM13.6113 24.4999C11.6783 24.4999 10.1113 22.933 10.1113 20.9999C10.1113 19.0669 11.6783 17.4999 13.6113 17.4999C15.5443 17.4999 17.1113 19.0669 17.1113 20.9999C17.1113 22.933 15.5443 24.4999 13.6113 24.4999ZM21.3891 16.7222C19.4561 16.7222 17.8891 15.1552 17.8891 13.2222C17.8891 11.2892 19.4561 9.72217 21.3891 9.72217C23.3221 9.72217 24.8891 11.2892 24.8891 13.2222C24.8891 15.1552 23.3221 16.7222 21.3891 16.7222ZM21.3891 24.4999C19.4561 24.4999 17.8891 22.933 17.8891 20.9999C17.8891 19.0669 19.4561 17.4999 21.3891 17.4999C23.3221 17.4999 24.8891 19.0669 24.8891 20.9999C24.8891 22.933 23.3221 24.4999 21.3891 24.4999ZM13.6113 15.1666C14.6852 15.1666 15.5558 14.2961 15.5558 13.2222C15.5558 12.1483 14.6852 11.2777 13.6113 11.2777C12.5374 11.2777 11.6669 12.1483 11.6669 13.2222C11.6669 14.2961 12.5374 15.1666 13.6113 15.1666ZM13.6113 22.9444C14.6852 22.9444 15.5558 22.0738 15.5558 20.9999C15.5558 19.9261 14.6852 19.0555 13.6113 19.0555C12.5374 19.0555 11.6669 19.9261 11.6669 20.9999C11.6669 22.0738 12.5374 22.9444 13.6113 22.9444ZM21.3891 15.1666C22.463 15.1666 23.3336 14.2961 23.3336 13.2222C23.3336 12.1483 22.463 11.2777 21.3891 11.2777C20.3152 11.2777 19.4447 12.1483 19.4447 13.2222C19.4447 14.2961 20.3152 15.1666 21.3891 15.1666ZM21.3891 22.9444C22.463 22.9444 23.3336 22.0738 23.3336 20.9999C23.3336 19.9261 22.463 19.0555 21.3891 19.0555C20.3152 19.0555 19.4447 19.9261 19.4447 20.9999C19.4447 22.0738 20.3152 22.9444 21.3891 22.9444Z" fill="#E98862"/>
</svg>
