<svg width="22" height="22" viewBox="0 0 22 22" fill="none" xmlns="http://www.w3.org/2000/svg">
<path d="M11.0448 8.04525C10.4293 7.98447 9.81005 8.1154 9.27186 8.42014C8.73368 8.72488 8.30284 9.18851 8.03833 9.74757C7.77383 10.3066 7.68858 10.9338 7.79428 11.5432C7.89997 12.1525 8.19144 12.7143 8.62876 13.1517C9.06609 13.589 9.6279 13.8805 10.2373 13.9861C10.8466 14.0918 11.4738 14.0066 12.0329 13.7421C12.5919 13.4776 13.0555 13.0467 13.3603 12.5086C13.665 11.9704 13.796 11.3512 13.7352 10.7357C13.6659 10.0457 13.3602 9.40093 12.8698 8.9106C12.3795 8.42027 11.7347 8.11455 11.0448 8.04525V8.04525ZM18.2676 11.0305C18.2657 11.3566 18.2418 11.6821 18.1959 12.005L20.315 13.667C20.4073 13.7435 20.4694 13.8502 20.4905 13.9682C20.5115 14.0862 20.49 14.2078 20.4298 14.3115L18.4251 17.78C18.3643 17.8826 18.2691 17.9605 18.1564 17.9999C18.0437 18.0392 17.9208 18.0375 17.8092 17.9951L15.7047 17.1477C15.5887 17.1015 15.4629 17.0848 15.3389 17.0991C15.2148 17.1134 15.0962 17.1583 14.9937 17.2297C14.6725 17.4509 14.335 17.6474 13.9841 17.8175C13.8737 17.8711 13.7783 17.9511 13.7062 18.0503C13.6341 18.1495 13.5876 18.265 13.5707 18.3865L13.2552 20.6312C13.2345 20.7497 13.1732 20.8574 13.0819 20.9358C12.9906 21.0142 12.8749 21.0584 12.7546 21.061H8.74524C8.62691 21.0589 8.5128 21.0166 8.42172 20.9411C8.33065 20.8655 8.26803 20.7612 8.24418 20.6452L7.92921 18.4038C7.91152 18.281 7.86375 18.1645 7.79016 18.0645C7.71656 17.9646 7.61942 17.8844 7.50736 17.8311C7.15686 17.6619 6.8205 17.4649 6.5015 17.2419C6.39937 17.1708 6.28115 17.1263 6.15752 17.1123C6.03388 17.0983 5.90871 17.1153 5.79327 17.1618L3.68921 18.0087C3.57771 18.0512 3.4548 18.0529 3.34213 18.0137C3.22947 17.9744 3.13427 17.8966 3.07332 17.794L1.06863 14.3256C1.00836 14.2219 0.986821 14.1003 1.00785 13.9823C1.02888 13.8642 1.09111 13.7575 1.18347 13.6811L2.97442 12.2749C3.07254 12.197 3.14966 12.0959 3.19877 11.9806C3.24788 11.8654 3.26743 11.7397 3.25565 11.615C3.23878 11.4195 3.22847 11.2245 3.22847 11.0291C3.22847 10.8336 3.23831 10.6415 3.25565 10.4502C3.26614 10.3263 3.24563 10.2016 3.19597 10.0876C3.1463 9.97352 3.06904 9.8736 2.97114 9.79684L1.18112 8.39069C1.09027 8.31387 1.02935 8.20752 1.00904 8.09028C0.988725 7.97305 1.01032 7.8524 1.07004 7.74949L3.07473 4.281C3.13561 4.17835 3.23077 4.10048 3.34344 4.06112C3.45611 4.02177 3.57906 4.02344 3.69062 4.06586L5.79515 4.9133C5.9112 4.95951 6.03691 4.9762 6.161 4.96189C6.2851 4.94757 6.4037 4.90269 6.50619 4.83127C6.82738 4.6101 7.16488 4.41361 7.5158 4.24351C7.62612 4.18988 7.72155 4.10992 7.79365 4.01068C7.86575 3.91145 7.9123 3.79598 7.92921 3.67449L8.24465 1.42981C8.26537 1.31126 8.32661 1.20359 8.41792 1.1252C8.50922 1.0468 8.62492 1.00255 8.74524 1H12.7546C12.873 1.00205 12.9871 1.04434 13.0781 1.11991C13.1692 1.19549 13.2318 1.29983 13.2557 1.41575L13.5707 3.65714C13.5883 3.77998 13.6361 3.89654 13.7097 3.99646C13.7833 4.09639 13.8804 4.17658 13.9925 4.22991C14.343 4.3991 14.6794 4.59612 14.9984 4.81909C15.1005 4.89015 15.2187 4.93469 15.3423 4.94868C15.466 4.96267 15.5912 4.94568 15.7066 4.89924L17.8106 4.05227C17.9221 4.00981 18.0451 4.00806 18.1577 4.04733C18.2704 4.0866 18.3656 4.16437 18.4265 4.26694L20.4312 7.73543C20.4915 7.83906 20.513 7.96071 20.492 8.07873C20.471 8.19675 20.4087 8.30348 20.3164 8.37991L18.5254 9.78606C18.4269 9.86369 18.3493 9.96474 18.2998 10.08C18.2503 10.1953 18.2304 10.3211 18.2419 10.446C18.2573 10.6401 18.2676 10.835 18.2676 11.0305Z" stroke="#524E4E" stroke-width="1.49989" stroke-linecap="round" stroke-linejoin="round"/>
</svg>
