<svg width="29" height="28" viewBox="0 0 29 28" fill="none" xmlns="http://www.w3.org/2000/svg">
<path d="M10.124 24.4965C11.0905 24.4965 11.874 23.713 11.874 22.7465C11.874 21.78 11.0905 20.9965 10.124 20.9965C9.15753 20.9965 8.37402 21.78 8.37402 22.7465C8.37402 23.713 9.15753 24.4965 10.124 24.4965Z" fill="#673AB7"/>
<path d="M22.3759 24.4965C23.3424 24.4965 24.1259 23.713 24.1259 22.7465C24.1259 21.78 23.3424 20.9965 22.3759 20.9965C21.4094 20.9965 20.6259 21.78 20.6259 22.7465C20.6259 23.713 21.4094 24.4965 22.3759 24.4965Z" fill="#673AB7"/>
<path d="M25.4801 6.60159C25.3572 6.45122 25.2024 6.33012 25.0268 6.24707C24.8512 6.16401 24.6594 6.1211 24.4651 6.12143H7.82101L7.48578 4.2194C7.45003 4.0168 7.34404 3.83327 7.18642 3.70105C7.0288 3.56884 6.82963 3.49639 6.6239 3.49643H3.1239C2.89184 3.49643 2.66928 3.58862 2.50518 3.75271C2.34109 3.91681 2.2489 4.13937 2.2489 4.37143C2.2489 4.60349 2.34109 4.82605 2.50518 4.99015C2.66928 5.15424 2.89184 5.24643 3.1239 5.24643H5.88999L8.38703 19.3985C8.42277 19.6011 8.52876 19.7846 8.68638 19.9168C8.844 20.049 9.04317 20.1215 9.2489 20.1214H23.2489C23.481 20.1214 23.7035 20.0293 23.8676 19.8652C24.0317 19.7011 24.1239 19.4785 24.1239 19.2464C24.1239 19.0144 24.0317 18.7918 23.8676 18.6277C23.7035 18.4636 23.481 18.3714 23.2489 18.3714H9.98281L9.67437 16.6214H22.8901C23.1936 16.621 23.4876 16.5158 23.7224 16.3236C23.9572 16.1314 24.1183 15.8639 24.1786 15.5665L25.7536 7.69151C25.7915 7.50093 25.7867 7.30429 25.7394 7.11581C25.6921 6.92732 25.6036 6.75169 25.4801 6.60159Z" fill="#673AB7"/>
</svg>
