<svg width="20" height="21" viewBox="0 0 20 21" fill="none" xmlns="http://www.w3.org/2000/svg">
<path d="M10.0448 7.04525C9.42927 6.98447 8.81005 7.1154 8.27186 7.42014C7.73368 7.72488 7.30284 8.18851 7.03833 8.74757C6.77383 9.30663 6.68858 9.93378 6.79428 10.5432C6.89997 11.1525 7.19144 11.7143 7.62876 12.1517C8.06609 12.589 8.6279 12.8805 9.23727 12.9861C9.84665 13.0918 10.4738 13.0066 11.0329 12.7421C11.5919 12.4776 12.0555 12.0467 12.3603 11.5086C12.665 10.9704 12.796 10.3512 12.7352 9.73567C12.6659 9.04571 12.3602 8.40093 11.8698 7.9106C11.3795 7.42027 10.7347 7.11455 10.0448 7.04525V7.04525ZM17.2676 10.0305C17.2657 10.3566 17.2418 10.6821 17.1959 11.005L19.315 12.667C19.4073 12.7435 19.4694 12.8502 19.4905 12.9682C19.5115 13.0862 19.49 13.2078 19.4298 13.3115L17.4251 16.78C17.3643 16.8826 17.2691 16.9605 17.1564 16.9999C17.0437 17.0392 16.9208 17.0375 16.8092 16.9951L14.7047 16.1477C14.5887 16.1015 14.4629 16.0848 14.3389 16.0991C14.2148 16.1134 14.0962 16.1583 13.9937 16.2297C13.6725 16.4509 13.335 16.6474 12.9841 16.8175C12.8737 16.8711 12.7783 16.9511 12.7062 17.0503C12.6341 17.1495 12.5876 17.265 12.5707 17.3865L12.2552 19.6312C12.2345 19.7497 12.1732 19.8574 12.0819 19.9358C11.9906 20.0142 11.8749 20.0584 11.7546 20.061H7.74524C7.62691 20.0589 7.5128 20.0166 7.42172 19.9411C7.33065 19.8655 7.26803 19.7612 7.24418 19.6452L6.92921 17.4038C6.91152 17.281 6.86375 17.1645 6.79016 17.0645C6.71656 16.9646 6.61942 16.8844 6.50736 16.8311C6.15686 16.6619 5.8205 16.4649 5.5015 16.2419C5.39937 16.1708 5.28115 16.1263 5.15752 16.1123C5.03388 16.0983 4.90871 16.1153 4.79327 16.1618L2.68921 17.0087C2.57771 17.0512 2.4548 17.0529 2.34213 17.0137C2.22947 16.9744 2.13427 16.8966 2.07332 16.794L0.06863 13.3256C0.00835941 13.2219 -0.0131787 13.1003 0.00785042 12.9823C0.0288796 12.8642 0.0911112 12.7575 0.183465 12.6811L1.97442 11.2749C2.07254 11.197 2.14966 11.0959 2.19877 10.9806C2.24788 10.8654 2.26743 10.7397 2.25565 10.615C2.23878 10.4195 2.22847 10.2245 2.22847 10.0291C2.22847 9.83363 2.23831 9.64146 2.25565 9.45023C2.26614 9.32626 2.24563 9.20164 2.19597 9.08758C2.1463 8.97352 2.06904 8.8736 1.97114 8.79684L0.181121 7.39069C0.0902664 7.31387 0.0293459 7.20752 0.00903533 7.09028C-0.0112753 6.97305 0.0103197 6.8524 0.0700361 6.74949L2.07473 3.281C2.13561 3.17835 2.23077 3.10048 2.34344 3.06112C2.45611 3.02177 2.57906 3.02344 2.69062 3.06586L4.79515 3.9133C4.9112 3.95951 5.03691 3.9762 5.161 3.96189C5.2851 3.94757 5.4037 3.90269 5.50619 3.83127C5.82738 3.6101 6.16488 3.41361 6.5158 3.24351C6.62612 3.18988 6.72155 3.10992 6.79365 3.01068C6.86575 2.91145 6.9123 2.79598 6.92921 2.67449L7.24465 0.429811C7.26537 0.311265 7.32661 0.203593 7.41792 0.125197C7.50922 0.0468011 7.62492 0.00254771 7.74524 0H11.7546C11.873 0.00204724 11.9871 0.0443408 12.0781 0.119913C12.1692 0.195485 12.2318 0.299828 12.2557 0.41575L12.5707 2.65714C12.5883 2.77998 12.6361 2.89654 12.7097 2.99646C12.7833 3.09639 12.8804 3.17658 12.9925 3.22991C13.343 3.3991 13.6794 3.59612 13.9984 3.81909C14.1005 3.89015 14.2187 3.93469 14.3423 3.94868C14.466 3.96267 14.5912 3.94568 14.7066 3.89924L16.8106 3.05227C16.9221 3.00981 17.0451 3.00806 17.1577 3.04733C17.2704 3.0866 17.3656 3.16437 17.4265 3.26694L19.4312 6.73543C19.4915 6.83906 19.513 6.96071 19.492 7.07873C19.471 7.19675 19.4087 7.30348 19.3164 7.37991L17.5254 8.78606C17.4269 8.86369 17.3493 8.96474 17.2998 9.08C17.2503 9.19527 17.2304 9.32108 17.2419 9.44601C17.2573 9.64006 17.2676 9.83504 17.2676 10.0305Z" fill="#673AB7"/>
</svg>
