<svg width="45" height="45" viewBox="0 0 45 45" fill="none" xmlns="http://www.w3.org/2000/svg">
<circle cx="22.5" cy="22.5" r="22.5" fill="#E93B3B" fill-opacity="0.28"/>
<g clip-path="url(#clip0_1895_15171)">
<path fill-rule="evenodd" clip-rule="evenodd" d="M11.5 12.5C10.5717 12.5 9.6815 12.8687 9.02513 13.5251C8.36875 14.1815 8 15.0717 8 16V30.0175C8.00463 30.9427 8.37542 31.8285 9.03129 32.4811C9.68717 33.1337 10.5748 33.5 11.5 33.5H21.125C21.3571 33.5 21.5796 33.4078 21.7437 33.2437C21.9078 33.0796 22 32.8571 22 32.625C22 32.3929 21.9078 32.1704 21.7437 32.0063C21.5796 31.8422 21.3571 31.75 21.125 31.75H11.5C11.1148 31.75 10.7403 31.623 10.4347 31.3885C10.129 31.1541 9.90927 30.8253 9.8095 30.4532L19.6795 24.379L21.5503 25.499L22 25.7703L22.4497 25.5007L24.7773 24.1042L34.25 18.4202V23.875C34.25 24.1071 34.3422 24.3296 34.5063 24.4937C34.6704 24.6578 34.8929 24.75 35.125 24.75C35.3571 24.75 35.5796 24.6578 35.7437 24.4937C35.9078 24.3296 36 24.1071 36 23.875V16C36 15.0717 35.6313 14.1815 34.9749 13.5251C34.3185 12.8687 33.4283 12.5 32.5 12.5H11.5ZM17.989 23.364L9.75 28.4337V18.4202L17.989 23.364ZM20.124 22.6045L9.75 16.3798V16C9.75 15.5359 9.93437 15.0908 10.2626 14.7626C10.5908 14.4344 11.0359 14.25 11.5 14.25H32.5C32.9641 14.25 33.4092 14.4344 33.7374 14.7626C34.0656 15.0908 34.25 15.5359 34.25 16V16.3798L23.876 22.6045L22 23.7297L20.124 22.6045ZM36 30.875C36 32.4995 35.3547 34.0574 34.206 35.206C33.0574 36.3547 31.4995 37 29.875 37C28.2505 37 26.6926 36.3547 25.544 35.206C24.3953 34.0574 23.75 32.4995 23.75 30.875C23.75 29.2505 24.3953 27.6926 25.544 26.544C26.6926 25.3953 28.2505 24.75 29.875 24.75C31.4995 24.75 33.0574 25.3953 34.206 26.544C35.3547 27.6926 36 29.2505 36 30.875ZM27.5055 28.5055C27.5868 28.424 27.6833 28.3594 27.7896 28.3153C27.8959 28.2711 28.0099 28.2484 28.125 28.2484C28.2401 28.2484 28.3541 28.2711 28.4604 28.3153C28.5667 28.3594 28.6632 28.424 28.7445 28.5055L29.875 29.6378L31.0055 28.5055C31.1698 28.3412 31.3926 28.2489 31.625 28.2489C31.8574 28.2489 32.0802 28.3412 32.2445 28.5055C32.4088 28.6698 32.5011 28.8926 32.5011 29.125C32.5011 29.3574 32.4088 29.5802 32.2445 29.7445L31.1122 30.875L32.2445 32.0055C32.4088 32.1698 32.5011 32.3926 32.5011 32.625C32.5011 32.8574 32.4088 33.0802 32.2445 33.2445C32.0802 33.4088 31.8574 33.5011 31.625 33.5011C31.3926 33.5011 31.1698 33.4088 31.0055 33.2445L29.875 32.1122L28.7445 33.2445C28.5802 33.4088 28.3574 33.5011 28.125 33.5011C27.8926 33.5011 27.6698 33.4088 27.5055 33.2445C27.3412 33.0802 27.2489 32.8574 27.2489 32.625C27.2489 32.3926 27.3412 32.1698 27.5055 32.0055L28.6378 30.875L27.5055 29.7445C27.424 29.6632 27.3594 29.5667 27.3153 29.4604C27.2711 29.3541 27.2484 29.2401 27.2484 29.125C27.2484 29.0099 27.2711 28.8959 27.3153 28.7896C27.3594 28.6833 27.424 28.5868 27.5055 28.5055Z" fill="#E93B3B"/>
</g>
<defs>
<clipPath id="clip0_1895_15171">
<rect width="28" height="28" fill="white" transform="translate(8 9)"/>
</clipPath>
</defs>
</svg>
