<svg width="32" height="32" viewBox="0 0 32 32" fill="none" xmlns="http://www.w3.org/2000/svg">
<path d="M23.9961 22.9962H25.4961C26.1585 22.9942 26.7933 22.7302 27.2617 22.2618C27.7301 21.7934 27.9941 21.1587 27.9961 20.4962V10.4962C27.9941 9.83378 27.7301 9.19905 27.2617 8.73063C26.7933 8.26222 26.1585 7.99819 25.4961 7.99622H6.49609C5.83366 7.99819 5.19892 8.26222 4.73051 8.73063C4.2621 9.19905 3.99807 9.83378 3.99609 10.4962V20.4962C3.99807 21.1587 4.2621 21.7934 4.73051 22.2618C5.19892 22.7302 5.83366 22.9942 6.49609 22.9962H7.99609" stroke="black" stroke-width="1.49989" stroke-linejoin="round"/>
<path d="M22.482 14.9962H9.52195C8.68248 14.9962 8.00195 15.6768 8.00195 16.5162V26.4762C8.00195 27.3157 8.68248 27.9962 9.52195 27.9962H22.482C23.3214 27.9962 24.002 27.3157 24.002 26.4762V16.5162C24.002 15.6768 23.3214 14.9962 22.482 14.9962Z" stroke="black" stroke-width="1.49989" stroke-linejoin="round"/>
<path d="M24.002 7.99606V6.49606C24 5.83363 23.7359 5.19889 23.2675 4.73048C22.7991 4.26207 22.1644 3.99804 21.502 3.99606H10.502C9.83952 3.99804 9.20478 4.26207 8.73637 4.73048C8.26796 5.19889 8.00393 5.83363 8.00195 6.49606V7.99606" stroke="black" stroke-width="1.49989" stroke-linejoin="round"/>
<path d="M24.501 12.9959C25.3294 12.9959 26.001 12.3243 26.001 11.4959C26.001 10.6675 25.3294 9.99588 24.501 9.99588C23.6725 9.99588 23.001 10.6675 23.001 11.4959C23.001 12.3243 23.6725 12.9959 24.501 12.9959Z" fill="black"/>
</svg>
