<svg width="45" height="45" viewBox="0 0 45 45" fill="none" xmlns="http://www.w3.org/2000/svg">
<circle cx="22.5" cy="22.5" r="22.5" fill="#D33AEC" fill-opacity="0.27"/>
<path d="M32.5 33.5V16.875L24.625 9H15C14.0717 9 13.1815 9.36875 12.5251 10.0251C11.8687 10.6815 11.5 11.5717 11.5 12.5V33.5C11.5 34.4283 11.8687 35.3185 12.5251 35.9749C13.1815 36.6313 14.0717 37 15 37H29C29.9283 37 30.8185 36.6313 31.4749 35.9749C32.1313 35.3185 32.5 34.4283 32.5 33.5ZM24.625 14.25C24.625 14.9462 24.9016 15.6139 25.3938 16.1062C25.8861 16.5984 26.5538 16.875 27.25 16.875H30.75V24.75H13.25V12.5C13.25 12.0359 13.4344 11.5908 13.7626 11.2626C14.0908 10.9344 14.5359 10.75 15 10.75H24.625V14.25ZM13.25 30V26.5H16.75V30H13.25ZM13.25 31.75H16.75V35.25H15C14.5359 35.25 14.0908 35.0656 13.7626 34.7374C13.4344 34.4092 13.25 33.9641 13.25 33.5V31.75ZM18.5 35.25V31.75H23.75V35.25H18.5ZM25.5 35.25V31.75H30.75V33.5C30.75 33.9641 30.5656 34.4092 30.2374 34.7374C29.9092 35.0656 29.4641 35.25 29 35.25H25.5ZM30.75 30H25.5V26.5H30.75V30ZM18.5 30V26.5H23.75V30H18.5Z" fill="#D33AEC"/>
</svg>
