<svg width="28" height="28" viewBox="0 0 28 28" fill="none" xmlns="http://www.w3.org/2000/svg">
<path d="M9.625 23.6213C10.1082 23.6213 10.5 23.2296 10.5 22.7463C10.5 22.2631 10.1082 21.8713 9.625 21.8713C9.14175 21.8713 8.75 22.2631 8.75 22.7463C8.75 23.2296 9.14175 23.6213 9.625 23.6213Z" stroke="#524E4E" stroke-width="1.49989" stroke-linecap="round" stroke-linejoin="round"/>
<path d="M21.875 23.6213C22.3582 23.6213 22.75 23.2296 22.75 22.7463C22.75 22.2631 22.3582 21.8713 21.875 21.8713C21.3918 21.8713 21 22.2631 21 22.7463C21 23.2296 21.3918 23.6213 21.875 23.6213Z" stroke="#524E4E" stroke-width="1.49989" stroke-linecap="round" stroke-linejoin="round"/>
<path d="M2.62305 4.37134H6.12305L8.74805 19.2463H22.748" stroke="#524E4E" stroke-width="1.49989" stroke-linecap="round" stroke-linejoin="round"/>
<path d="M8.75 15.7462H22.3912C22.4924 15.7463 22.5905 15.7113 22.6688 15.6472C22.7471 15.5831 22.8007 15.4938 22.8205 15.3946L24.3955 7.51958C24.4083 7.45608 24.4067 7.39055 24.391 7.32771C24.3753 7.26488 24.3459 7.20632 24.3048 7.15625C24.2637 7.10618 24.2121 7.06585 24.1535 7.03818C24.095 7.0105 24.031 6.99617 23.9662 6.99622H7" stroke="#524E4E" stroke-width="1.49989" stroke-linecap="round" stroke-linejoin="round"/>
</svg>
