<svg width="250" height="162" viewBox="0 0 250 162" fill="none" xmlns="http://www.w3.org/2000/svg">
<g clip-path="url(#clip0_645_2695)">
<path d="M214.512 105.458L214.043 105.51L219.835 159.938L220.304 159.885L214.512 105.458Z" fill="#292A2E"/>
<path d="M229.512 129.219L226.663 158.206L227.132 158.254L229.981 129.267L229.512 129.219Z" fill="#292A2E"/>
<path d="M234.41 154.702H213.271V161.757H234.41V154.702Z" fill="#292A2E"/>
<path opacity="0.2" d="M234.41 154.702H213.271V161.757H234.41V154.702Z" fill="white"/>
<path d="M247.154 141.71C251.159 136.236 249.25 127.809 242.89 122.888C236.53 117.966 228.128 118.414 224.124 123.888C220.119 129.362 222.028 137.789 228.388 142.711C234.748 147.632 243.149 147.184 247.154 141.71Z" fill="#0CBC8B"/>
<path opacity="0.2" d="M247.154 141.71C251.159 136.236 249.25 127.809 242.89 122.888C236.53 117.966 228.128 118.414 224.124 123.888C220.119 129.362 222.028 137.789 228.388 142.711C234.748 147.632 243.149 147.184 247.154 141.71Z" fill="white"/>
<path opacity="0.5" d="M247.154 141.711C246.885 142.08 246.591 142.43 246.275 142.757C241.867 145.654 235.36 145.198 230.198 141.203C223.839 136.282 221.931 127.855 225.936 122.382C226.205 122.013 226.498 121.664 226.812 121.335C231.223 118.436 237.727 118.895 242.891 122.888C249.25 127.81 251.159 136.237 247.154 141.711Z" fill="white"/>
<path d="M217.653 120.943C223.953 115.941 225.666 107.363 221.478 101.783C217.29 96.2036 208.788 95.7349 202.488 100.737C196.187 105.738 194.475 114.316 198.663 119.896C202.851 125.476 211.353 125.944 217.653 120.943Z" fill="#0CBC8B"/>
<path opacity="0.2" d="M215.656 119.507C210.777 123.383 204.577 123.973 200.082 121.45C199.562 120.979 199.087 120.458 198.663 119.893C194.475 114.315 196.186 105.736 202.486 100.736C207.366 96.8621 213.566 96.2694 218.059 98.7904C218.58 99.2617 219.056 99.7838 219.48 100.349C223.668 105.927 221.956 114.506 215.656 119.507Z" fill="white"/>
<path d="M24.758 63.0418C37.431 63.0418 47.7045 52.4759 47.7045 39.4422C47.7045 26.4085 37.431 15.8425 24.758 15.8425C12.085 15.8425 1.81152 26.4085 1.81152 39.4422C1.81152 52.4759 12.085 63.0418 24.758 63.0418Z" fill="#F4F4F4"/>
<g opacity="0.05">
<path d="M24.7578 58.1508C34.8043 58.1508 42.9487 49.7746 42.9487 39.4421C42.9487 29.1096 34.8043 20.7334 24.7578 20.7334C14.7112 20.7334 6.56689 29.1096 6.56689 39.4421C6.56689 49.7746 14.7112 58.1508 24.7578 58.1508Z" fill="#292A2E"/>
</g>
<path d="M18.8037 46.1247L20.5007 43.4184C21.8453 44.4784 23.0222 45.0196 24.2731 45.0196C25.7729 45.0196 26.4327 44.3799 26.4327 43.1413C26.4327 40.3417 19.4482 40.3921 19.4482 35.4815C19.4482 32.3247 21.5743 30.314 24.927 30.314C27.1904 30.314 28.7282 31.2747 29.9641 32.6226L28.0179 34.9155C27.0562 34.0159 26.2407 33.5421 25.1358 33.5421C23.862 33.5421 23.1725 34.07 23.1725 35.2925C23.1725 37.8884 30.1568 37.6611 30.1568 42.8619C30.1568 45.9869 28.1463 48.2477 24.2731 48.2477C22.6021 48.247 20.2981 47.5173 18.8037 46.1247ZM23.4576 27.6465H26.0388V31.5656H23.4576V27.6465ZM23.4576 46.6138H26.0388V50.9138H23.4576V46.6138Z" fill="white"/>
<path d="M227.054 47.1993C239.727 47.1993 250 36.6334 250 23.5997C250 10.5659 239.727 0 227.054 0C214.381 0 204.107 10.5659 204.107 23.5997C204.107 36.6334 214.381 47.1993 227.054 47.1993Z" fill="#F4F4F4"/>
<g opacity="0.05">
<path d="M227.054 42.3082C237.1 42.3082 245.245 33.9321 245.245 23.5996C245.245 13.267 237.1 4.89087 227.054 4.89087C217.007 4.89087 208.863 13.267 208.863 23.5996C208.863 33.9321 217.007 42.3082 227.054 42.3082Z" fill="#292A2E"/>
</g>
<path d="M221.1 30.2819L222.797 27.5759C224.141 28.6356 225.318 29.1771 226.569 29.1771C228.069 29.1771 228.728 28.5371 228.728 27.2986C228.728 24.4989 221.744 24.5493 221.744 19.6387C221.744 16.4822 223.87 14.4712 227.223 14.4712C229.486 14.4712 231.024 15.4317 232.26 16.7796L230.314 19.0725C229.352 18.1729 228.536 17.6993 227.432 17.6993C226.158 17.6993 225.468 18.2272 225.468 19.4497C225.468 22.0456 232.453 21.8181 232.453 27.0191C232.453 30.1439 230.442 32.405 226.569 32.405C224.898 32.4045 222.594 31.6747 221.1 30.2819ZM225.753 11.804H228.334V15.7228H225.753V11.804ZM225.753 30.771H228.334V35.0712H225.753V30.771Z" fill="white"/>
<path d="M207.468 12.146H48.3141C44.4057 12.146 41.2373 15.4046 41.2373 19.4242V139.266C41.2373 143.286 44.4057 146.545 48.3141 146.545H207.468C211.377 146.545 214.545 143.286 214.545 139.266V19.4242C214.545 15.4046 211.377 12.146 207.468 12.146Z" fill="white"/>
<path d="M207.468 146.787H48.3142C46.3754 146.785 44.5167 145.991 43.1458 144.581C41.7749 143.172 41.0037 141.26 41.0015 139.266V19.4242C41.0037 17.4302 41.7748 15.5185 43.1457 14.1086C44.5166 12.6987 46.3754 11.9056 48.3142 11.9033H207.468C209.407 11.9055 211.266 12.6986 212.636 14.1085C214.007 15.5185 214.779 17.4302 214.781 19.4242V139.266C214.778 141.26 214.007 143.172 212.636 144.582C211.265 145.991 209.407 146.785 207.468 146.787ZM48.3142 12.3885C46.5004 12.3906 44.7616 13.1325 43.4791 14.4515C42.1966 15.7705 41.4752 17.5588 41.4733 19.4242V139.266C41.4752 141.131 42.1966 142.92 43.4791 144.239C44.7616 145.558 46.5004 146.3 48.3142 146.302H207.468C209.282 146.3 211.02 145.558 212.303 144.239C213.585 142.92 214.307 141.131 214.309 139.266V19.4242C214.307 17.5588 213.585 15.7705 212.303 14.4515C211.02 13.1325 209.282 12.3906 207.468 12.3885H48.3142Z" fill="#292A2E"/>
<path d="M72.1729 77.8337C72.0799 77.8338 71.9879 77.815 71.902 77.7784C71.8162 77.7418 71.7382 77.6881 71.6725 77.6204L68.37 74.2239C68.2411 74.0867 68.1698 73.9028 68.1714 73.712C68.173 73.5211 68.2475 73.3386 68.3787 73.2037C68.5099 73.0687 68.6874 72.9922 68.8729 72.9905C69.0585 72.9888 69.2372 73.0622 69.3707 73.1948L72.6732 76.5913C72.7721 76.6931 72.8395 76.8228 72.8668 76.9639C72.8941 77.1051 72.8801 77.2514 72.8265 77.3844C72.773 77.5173 72.6823 77.631 72.566 77.711C72.4496 77.791 72.3128 77.8337 72.1729 77.8337Z" fill="#0CBC8B"/>
<path d="M68.8701 77.8337C68.7302 77.8337 68.5934 77.791 68.477 77.711C68.3607 77.631 68.27 77.5173 68.2165 77.3844C68.1629 77.2514 68.1489 77.1051 68.1762 76.9639C68.2035 76.8228 68.2709 76.6931 68.3698 76.5913L71.6723 73.1948C71.8058 73.0622 71.9845 72.9888 72.1701 72.9905C72.3556 72.9922 72.5331 73.0687 72.6643 73.2037C72.7956 73.3386 72.87 73.5211 72.8716 73.712C72.8732 73.9028 72.8019 74.0867 72.673 74.2239L69.3705 77.6204C69.3048 77.6881 69.2269 77.7418 69.141 77.7784C69.0551 77.815 68.9631 77.8338 68.8701 77.8337Z" fill="#0CBC8B"/>
<path d="M166.73 110.297L165.788 112.521L171.589 115.122L172.532 112.898L166.73 110.297Z" fill="#0CBC8B"/>
<path d="M168.561 50.6739L163.105 53.9714L164.3 56.0631L169.757 52.7656L168.561 50.6739Z" fill="#0CBC8B"/>
<path d="M77.6366 56.321L76.9058 58.6277L82.9234 60.6442L83.6542 58.3375L77.6366 56.321Z" fill="#0CBC8B"/>
<path d="M84.6813 95.0099L79.498 98.7395L80.8497 100.726L86.033 96.9968L84.6813 95.0099Z" fill="#0CBC8B"/>
<path d="M179.75 86.4606L179.533 88.8765L185.698 89.4609L185.914 87.0451L179.75 86.4606Z" fill="#0CBC8B"/>
<path d="M186.027 69.083C185.934 69.0832 185.842 69.0644 185.756 69.0278C185.67 68.9912 185.592 68.9375 185.527 68.8698L182.224 65.4733C182.157 65.4061 182.103 65.3258 182.066 65.237C182.029 65.1482 182.009 65.0527 182.008 64.9561C182.008 64.8594 182.025 64.7636 182.061 64.6741C182.097 64.5847 182.149 64.5034 182.216 64.4351C182.282 64.3668 182.361 64.3127 182.448 64.2761C182.535 64.2395 182.628 64.2211 182.722 64.222C182.816 64.2228 182.909 64.2429 182.995 64.281C183.082 64.3192 183.16 64.3746 183.225 64.4441L186.528 67.8406C186.626 67.9424 186.694 68.0721 186.721 68.2132C186.748 68.3544 186.734 68.5007 186.681 68.6337C186.627 68.7667 186.537 68.8803 186.42 68.9603C186.304 69.0403 186.167 69.083 186.027 69.083Z" fill="#0CBC8B"/>
<path d="M182.725 69.083C182.585 69.083 182.448 69.0403 182.332 68.9603C182.215 68.8803 182.125 68.7667 182.071 68.6337C182.017 68.5007 182.003 68.3544 182.031 68.2132C182.058 68.0721 182.125 67.9424 182.224 67.8406L185.527 64.4441C185.592 64.3746 185.67 64.3192 185.757 64.281C185.843 64.2429 185.936 64.2228 186.03 64.222C186.124 64.2211 186.217 64.2395 186.304 64.2761C186.391 64.3127 186.47 64.3668 186.536 64.4351C186.603 64.5034 186.655 64.5847 186.691 64.6741C186.726 64.7636 186.744 64.8594 186.743 64.9561C186.743 65.0527 186.723 65.1482 186.686 65.237C186.649 65.3258 186.595 65.4061 186.527 65.4733L183.225 68.8698C183.159 68.9375 183.081 68.9911 182.995 69.0277C182.91 69.0643 182.818 69.0831 182.725 69.083Z" fill="#0CBC8B"/>
<path opacity="0.4" d="M127.892 121.568C148.675 121.568 165.523 104.24 165.523 82.8651C165.523 61.49 148.675 44.1621 127.892 44.1621C107.108 44.1621 90.2598 61.49 90.2598 82.8651C90.2598 104.24 107.108 121.568 127.892 121.568Z" fill="#0CBC8B"/>
<path d="M127.891 109.932C142.426 109.932 154.209 97.8138 154.209 82.8651C154.209 67.9164 142.426 55.7981 127.891 55.7981C113.356 55.7981 101.573 67.9164 101.573 82.8651C101.573 97.8138 113.356 109.932 127.891 109.932Z" fill="#0CBC8B"/>
<path d="M122.51 94.4771C122.303 94.4772 122.099 94.4343 121.909 94.3509C121.719 94.2675 121.547 94.1454 121.404 93.9919L113.027 85.0258C112.885 84.877 112.773 84.7008 112.698 84.5072C112.622 84.3136 112.585 84.1065 112.588 83.898C112.591 83.6894 112.634 83.4836 112.715 83.2923C112.796 83.101 112.913 82.9281 113.059 82.7836C113.205 82.6391 113.378 82.5258 113.567 82.4504C113.756 82.375 113.958 82.3389 114.16 82.3442C114.363 82.3495 114.563 82.3961 114.748 82.4813C114.933 82.5665 115.1 82.6887 115.239 82.8407L122.589 90.7079L141.806 72.9784C141.955 72.8378 142.13 72.7291 142.321 72.6585C142.512 72.5879 142.714 72.5568 142.916 72.5671C143.119 72.5774 143.317 72.6288 143.5 72.7184C143.683 72.808 143.846 72.934 143.982 73.089C144.117 73.2441 144.221 73.4252 144.288 73.6219C144.355 73.8186 144.383 74.027 144.371 74.235C144.359 74.443 144.307 74.6464 144.218 74.8337C144.13 75.0209 144.006 75.1882 143.854 75.3259L123.534 94.0731C123.253 94.3334 122.888 94.4773 122.51 94.4771Z" fill="white"/>
<path d="M214.545 19.4232V26.7468H41.2383V19.4232C41.2383 17.4929 41.9839 15.6417 43.311 14.2768C44.6382 12.9118 46.4382 12.145 48.3151 12.145H207.468C209.345 12.145 211.145 12.9118 212.472 14.2768C213.799 15.6417 214.545 17.4929 214.545 19.4232Z" fill="#292A2E"/>
<path d="M8.8446 147.422C7.41952 147.422 6.0156 147.068 4.7523 146.389C3.489 145.711 2.40374 144.729 1.58886 143.527C0.77399 142.324 0.253634 140.937 0.072082 139.484C-0.10947 138.03 0.0531551 136.553 0.546118 135.177C1.04645 133.781 13.88 99.7099 16.1151 93.7886L31.5592 103.032C30.3031 106.362 25.7518 118.982 22.0954 129.149L28.1699 128.47L30.0818 145.103L9.80303 147.37C9.4847 147.405 9.16476 147.423 8.8446 147.422Z" fill="#673AB7"/>
<path d="M19.4455 147.949L16.748 161.758H69.1397L66.1219 147.686L19.4455 147.949Z" fill="#262626"/>
<path d="M59.3598 86.7033C59.3055 86.696 57.8194 92.4482 46.2205 91.553C38.1907 90.9344 36.2328 85.3131 36.0488 85.3131C36.9146 85.1239 38.3205 84.9274 38.705 84.7163C39.9694 84.0176 40.8903 83.167 41.3541 81.3417C41.7166 79.9142 41.9013 74.4189 41.9013 71.6616L54.2574 74.5171C54.0852 77.6273 52.8798 84.8376 57.1046 86.1138C57.8076 86.3248 58.5648 86.5189 59.3598 86.7033Z" fill="#E98862"/>
<path d="M53.8308 80.6317C48.9598 81.0271 42.7025 78.9118 41.5139 72.228L40.4415 66.1973C39.2528 59.5134 41.7028 53.4531 47.8219 52.3021C53.9407 51.1512 59.4781 55.7091 60.6665 62.3929L61.1414 65.0631C61.5966 67.6274 62.5211 79.9267 53.8308 80.6317Z" fill="#E98862"/>
<path d="M30.7734 86.2383C26.3962 86.5724 21.9329 87.0598 18.712 90.1266C14.833 93.8201 14.13 98.3614 16.6048 110.859C18.7339 121.613 17.8894 126.312 19.3137 146.155C19.3557 146.74 19.4456 147.949 19.4456 147.949L66.2704 147.869C66.2704 147.869 70.658 121.542 73.0804 109.399C74.9225 100.168 79.7611 88.9609 59.3599 86.7025C59.3061 86.6964 42.9439 85.3096 30.7734 86.2383Z" fill="#673AB7"/>
<path d="M19.4459 148.07C19.4153 148.07 19.386 148.058 19.364 148.037C19.342 148.015 19.3291 147.985 19.3279 147.954L17.8604 108.779C17.8593 108.747 17.8706 108.715 17.8919 108.692C17.9131 108.668 17.9426 108.654 17.9739 108.653C17.9895 108.652 18.0052 108.654 18.0201 108.659C18.0349 108.664 18.0485 108.673 18.06 108.684C18.0715 108.694 18.0807 108.708 18.0869 108.723C18.0932 108.737 18.0964 108.753 18.0963 108.769L19.5638 147.944C19.565 147.977 19.5537 148.008 19.5324 148.031C19.5111 148.055 19.4816 148.069 19.4504 148.07L19.4459 148.07Z" fill="#0C0C0C"/>
<path d="M94.5807 100.226L97.8705 92.6362C97.9428 92.4694 98.0481 92.32 98.1796 92.1974C98.3112 92.0747 98.4661 91.9816 98.6345 91.924C98.803 91.8663 98.9813 91.8454 99.158 91.8625C99.3348 91.8796 99.5061 91.9344 99.6612 92.0234C99.9426 92.1967 100.151 92.4714 100.247 92.7942C100.343 93.117 100.318 93.4648 100.179 93.7701L99.4734 95.3973L103.976 91.3268C104.468 90.8659 105.36 90.6233 105.827 91.2259C106.022 91.4458 106.138 91.727 106.157 92.0236C106.176 92.3201 106.097 92.6146 105.932 92.8589C105.938 92.8624 105.943 92.8667 105.947 92.8715C105.95 92.8757 105.953 92.8801 105.955 92.8846L106.715 92.173C106.856 92.0413 107.023 91.9436 107.206 91.8869C107.388 91.8302 107.58 91.8161 107.768 91.8455C107.956 91.875 108.136 91.9472 108.293 92.057C108.451 92.1668 108.583 92.3114 108.679 92.4802C108.826 92.7492 108.878 93.0619 108.828 93.3659C108.777 93.6699 108.626 93.9468 108.401 94.1503L108.078 94.4531C108.082 94.4667 108.083 94.481 108.083 94.4953C108.347 94.3429 108.656 94.2923 108.954 94.3525C109.252 94.4127 109.519 94.5798 109.708 94.824C109.907 95.0975 109.998 95.438 109.964 95.7777C109.929 96.1174 109.771 96.4313 109.522 96.6567L108.72 97.4088C108.739 97.4063 108.757 97.4085 108.775 97.4152C108.793 97.4218 108.809 97.4327 108.821 97.4469C108.836 97.4645 108.845 97.4859 108.848 97.5087C109.12 97.4403 109.407 97.4658 109.663 97.5813C109.92 97.6967 110.133 97.8958 110.27 98.1478C110.407 98.4156 110.453 98.7234 110.4 99.0214C110.346 99.3195 110.197 99.5902 109.975 99.7897L103.196 106.137C102.248 107.024 101.064 107.601 99.7948 107.792C98.5259 107.983 97.2304 107.78 96.0744 107.209C95.0776 106.717 94.3068 105.844 93.9257 104.776C93.5447 103.709 93.5834 102.53 94.0337 101.492L94.5807 100.226Z" fill="#E98862"/>
<g opacity="0.2">
<path d="M101.495 96.9098C101.516 96.9332 101.545 96.9473 101.576 96.9489C101.607 96.9506 101.637 96.9396 101.66 96.9185L105.937 93.0419C105.949 93.0314 105.959 93.0186 105.965 93.0043C105.972 92.9899 105.976 92.9744 105.977 92.9585C105.978 92.9426 105.976 92.9266 105.971 92.9116C105.966 92.8965 105.958 92.8826 105.948 92.8706C105.938 92.8587 105.925 92.8489 105.911 92.8419C105.897 92.8349 105.882 92.8308 105.867 92.8298C105.851 92.8288 105.836 92.831 105.821 92.8362C105.806 92.8413 105.793 92.8494 105.781 92.86L101.505 96.7363C101.493 96.7469 101.484 96.7597 101.477 96.774C101.47 96.7883 101.466 96.8039 101.465 96.8198C101.464 96.8357 101.466 96.8516 101.471 96.8667C101.476 96.8818 101.484 96.8957 101.494 96.9076L101.495 96.9098Z" fill="#0C0C0C"/>
</g>
<g opacity="0.2">
<path d="M103.106 98.8968C103.127 98.9202 103.156 98.9342 103.187 98.9358C103.217 98.9374 103.248 98.9265 103.271 98.9053L108.044 94.5791C108.055 94.5686 108.065 94.5558 108.072 94.5415C108.079 94.5272 108.083 94.5116 108.084 94.4957C108.085 94.4798 108.082 94.4639 108.077 94.4488C108.072 94.4337 108.064 94.4198 108.054 94.4079C108.033 94.3847 108.004 94.3706 107.973 94.3687C107.942 94.3667 107.912 94.3769 107.888 94.3972L103.115 98.7234C103.103 98.7339 103.094 98.7467 103.087 98.761C103.08 98.7753 103.076 98.7909 103.075 98.8068C103.074 98.8227 103.076 98.8387 103.081 98.8537C103.086 98.8688 103.094 98.8827 103.104 98.8947L103.106 98.8968Z" fill="#0C0C0C"/>
</g>
<g opacity="0.2">
<path d="M104.838 101.059C104.859 101.083 104.888 101.097 104.918 101.098C104.949 101.1 104.98 101.089 105.003 101.068L108.81 97.6171C108.834 97.5958 108.848 97.5658 108.85 97.5336C108.852 97.5015 108.841 97.4698 108.821 97.4457C108.8 97.4215 108.771 97.4068 108.739 97.4048C108.708 97.4028 108.677 97.4136 108.654 97.4349L104.847 100.886C104.835 100.897 104.825 100.909 104.819 100.924C104.812 100.938 104.808 100.953 104.807 100.969C104.806 100.985 104.808 101.001 104.813 101.016C104.818 101.031 104.826 101.045 104.836 101.057L104.838 101.059Z" fill="#0C0C0C"/>
</g>
<path d="M58.3465 74.4952C57.4723 69.9769 57.0713 66.9625 57.1178 63.7821C58.3494 61.5603 58.0255 59.0105 57.7455 57.9086C58.9526 58.586 59.4574 58.6607 60.5934 58.6607C60.5934 58.6607 58.5567 50.2541 51.6342 47.992C50.3604 47.4826 47.1112 46.8389 42.7958 47.4476C39.1253 47.9653 30.0773 50.7878 28.7837 61.2641V61.2702C28.7408 61.6176 27.8722 71.2697 26.1403 75.9009C23.8118 82.1267 20.5433 84.061 20.6261 91.2439C20.7327 100.483 37.2485 101.713 47.2112 101.021C57.1739 100.329 62.733 96.9612 62.8056 90.3025C62.8858 82.8421 60.0959 83.535 58.3465 74.4952Z" fill="#0A0A0A"/>
<path d="M58.3494 70.7079C56.4899 71.0575 54.6185 69.295 54.2786 67.3828C53.9387 65.4705 55.2583 64.1318 57.1178 63.7822L58.3494 70.7079Z" fill="#E98862"/>
<path d="M78.3502 146.045C76.4797 146.045 74.6574 145.435 73.1449 144.303C71.6323 143.172 70.5072 141.576 69.9311 139.746L57.6411 100.654L74.4749 95.0557L80.9384 115.618L92.1086 97.3481L107.086 107.034L85.8367 141.79C85.0404 143.092 83.936 144.165 82.6267 144.91C81.3174 145.654 79.8461 146.044 78.3502 146.045Z" fill="#673AB7"/>
<path d="M68.4325 135.252C68.4252 135.252 68.418 135.251 68.4108 135.25C68.3801 135.244 68.3528 135.226 68.3351 135.199C68.3175 135.173 68.3107 135.14 68.3164 135.108L72.4943 111.784C72.5 111.752 72.5177 111.724 72.5434 111.706C72.5692 111.687 72.601 111.681 72.6318 111.686C72.6625 111.692 72.6898 111.71 72.7076 111.737C72.7253 111.763 72.7321 111.796 72.7265 111.828L68.5486 135.152C68.5435 135.18 68.5292 135.205 68.508 135.224C68.4868 135.242 68.4601 135.252 68.4325 135.252Z" fill="#0C0C0C"/>
<path d="M82.4416 121.123C82.4154 121.123 82.39 121.115 82.3693 121.098C82.3486 121.082 82.3338 121.059 82.3272 121.033L80.9354 115.519C80.9315 115.504 80.9306 115.488 80.9328 115.472C80.9349 115.456 80.9401 115.441 80.9479 115.427C80.9558 115.414 80.9662 115.402 80.9785 115.392C80.9909 115.382 81.005 115.375 81.02 115.371C81.035 115.367 81.0506 115.366 81.0659 115.369C81.0813 115.371 81.096 115.376 81.1094 115.384C81.1227 115.392 81.1344 115.403 81.1437 115.416C81.1531 115.428 81.1599 115.443 81.1638 115.458L82.5555 120.972C82.5633 121.003 82.5588 121.036 82.5429 121.064C82.5271 121.091 82.5011 121.111 82.4708 121.12C82.4613 121.122 82.4515 121.124 82.4416 121.123Z" fill="#0C0C0C"/>
<path d="M5.37017 162H241.179C241.241 162 241.301 161.974 241.345 161.929C241.39 161.883 241.415 161.822 241.415 161.757C241.415 161.693 241.39 161.631 241.345 161.586C241.301 161.54 241.241 161.515 241.179 161.515H5.37017C5.30761 161.515 5.24761 161.54 5.20337 161.586C5.15913 161.631 5.13428 161.693 5.13428 161.757C5.13428 161.822 5.15913 161.883 5.20337 161.929C5.24761 161.974 5.30761 162 5.37017 162Z" fill="#292A2E"/>
<path d="M185.879 80.5544H231.016C233.397 80.5544 235.328 78.5691 235.328 76.1201V45.6971C235.328 43.248 233.397 41.2627 231.016 41.2627L185.879 41.2627C183.498 41.2627 181.568 43.248 181.568 45.6971V76.1201C181.568 78.5691 183.498 80.5544 185.879 80.5544Z" fill="#292A2E"/>
<path d="M193.79 46.7363H188.154C187.18 46.7363 186.39 47.5486 186.39 48.5505V51.9264C186.39 52.9284 187.18 53.7407 188.154 53.7407H193.79C194.764 53.7407 195.554 52.9284 195.554 51.9264V48.5505C195.554 47.5486 194.764 46.7363 193.79 46.7363Z" fill="white"/>
<path d="M195.554 47.5132V49.1568H192.45L191.949 48.6427V46.7373H194.799C194.898 46.7372 194.996 46.7573 195.088 46.7962C195.179 46.8352 195.263 46.8923 195.333 46.9643C195.403 47.0364 195.458 47.1219 195.496 47.2161C195.534 47.3103 195.554 47.4112 195.554 47.5132Z" fill="#0CBC8B"/>
<path d="M195.554 51.3198V52.9635C195.554 53.1694 195.475 53.3669 195.333 53.5124C195.191 53.658 194.999 53.7398 194.799 53.7398H191.949V51.7827L192.45 51.3193L195.554 51.3198Z" fill="#0CBC8B"/>
<path d="M189.946 46.7363V48.6427L189.495 49.1578H186.39V47.5141C186.39 47.4122 186.41 47.3112 186.448 47.217C186.486 47.1228 186.541 47.0373 186.611 46.9652C186.681 46.8931 186.765 46.8359 186.856 46.7969C186.948 46.7579 187.046 46.7378 187.145 46.7378L189.946 46.7363Z" fill="#0CBC8B"/>
<path d="M189.945 51.7832V53.7403H187.145C187.046 53.7403 186.948 53.7202 186.857 53.6812C186.765 53.6422 186.682 53.585 186.612 53.5129C186.542 53.4408 186.486 53.3553 186.448 53.2611C186.41 53.1669 186.391 53.0659 186.391 52.964V51.3203H189.495L189.945 51.7832Z" fill="#0CBC8B"/>
<path d="M231.15 72.753C231.15 73.8457 230.727 74.8937 229.976 75.6664C229.225 76.4391 228.206 76.8732 227.143 76.8732C226.081 76.8732 225.062 76.4391 224.311 75.6664C223.559 74.8937 223.137 73.8457 223.137 72.753C223.138 72.1388 223.273 71.5327 223.533 70.9798C223.794 70.427 224.172 69.9416 224.64 69.56C225.225 69.0676 225.934 68.7566 226.685 68.6632C227.436 68.5698 228.197 68.698 228.88 69.0328C229.562 69.3675 230.138 69.8951 230.54 70.5538C230.942 71.2125 231.154 71.9752 231.15 72.753H231.15Z" fill="white"/>
<path d="M223.137 75.9461C222.55 76.4387 221.839 76.7498 221.086 76.8434C220.334 76.937 219.571 76.8092 218.887 76.4749C218.202 76.1406 217.624 75.6134 217.219 74.9546C216.814 74.2958 216.599 73.5324 216.599 72.753C216.599 71.9736 216.814 71.2102 217.219 70.5514C217.624 69.8926 218.202 69.3655 218.887 69.0311C219.571 68.6968 220.334 68.569 221.086 68.6626C221.839 68.7562 222.55 69.0674 223.137 69.5599C222.236 70.3324 221.833 71.4654 221.833 72.7529C221.833 74.0404 222.235 75.2251 223.137 75.9461Z" fill="#0CBC8B"/>
<path d="M195.116 59.3926H187.127C186.72 59.3926 186.39 59.7319 186.39 60.1505V60.1507C186.39 60.5693 186.72 60.9086 187.127 60.9086H195.116C195.523 60.9086 195.853 60.5693 195.853 60.1507V60.1505C195.853 59.7319 195.523 59.3926 195.116 59.3926Z" fill="white"/>
<path d="M206.881 59.3926H198.893C198.486 59.3926 198.156 59.7319 198.156 60.1505V60.1507C198.156 60.5693 198.486 60.9086 198.893 60.9086H206.881C207.288 60.9086 207.618 60.5693 207.618 60.1507V60.1505C207.618 59.7319 207.288 59.3926 206.881 59.3926Z" fill="white"/>
<path d="M218.647 59.3926H210.658C210.251 59.3926 209.921 59.7319 209.921 60.1505V60.1507C209.921 60.5693 210.251 60.9086 210.658 60.9086H218.647C219.054 60.9086 219.384 60.5693 219.384 60.1507V60.1505C219.384 59.7319 219.054 59.3926 218.647 59.3926Z" fill="white"/>
<path d="M230.412 59.3926H222.423C222.016 59.3926 221.687 59.7319 221.687 60.1505V60.1507C221.687 60.5693 222.016 60.9086 222.423 60.9086H230.412C230.819 60.9086 231.149 60.5693 231.149 60.1507V60.1505C231.149 59.7319 230.819 59.3926 230.412 59.3926Z" fill="white"/>
</g>
<defs>
<clipPath id="clip0_645_2695">
<rect width="250" height="162" fill="white"/>
</clipPath>
</defs>
</svg>
